<svg id="Grupo_1" data-name="Grupo 1" xmlns="http://www.w3.org/2000/svg" width="29.72" height="29.72" viewBox="0 0 29.72 29.72">
  <path id="Trazado_1" data-name="Trazado 1" d="M41.16,29.4A14.86,14.86,0,1,0,56.02,44.26,14.873,14.873,0,0,0,41.16,29.4" transform="translate(-26.3 -29.4)" fill="#fff"/>
  <path id="Trazado_2" data-name="Trazado 2" d="M54.16,56.644a1.519,1.519,0,0,1,.911,1.678,1.587,1.587,0,0,1-1.534,1.246,1.923,1.923,0,0,1-.719-.144c-.1-.048-10.115-4.746-10.019-8.964-.1-4.17,9.923-8.868,10.019-8.916a1.923,1.923,0,0,1,.719-.144,1.587,1.587,0,0,1,1.534,1.246,1.441,1.441,0,0,1-.911,1.678c-2.972,1.342-8.341,4.554-8.341,6.136.048,1.582,5.465,4.842,8.341,6.184" transform="translate(-34.89 -35.648)" fill="#af1f23"/>
</svg>
